<svg width="800" height="500" viewBox="0 0 800 500" fill="none" xmlns="http://www.w3.org/2000/svg">
<rect width="800" height="500" fill="#C09159"/>
<path d="M51.9475 354.7C53.8706 353.481 59.8842 345.481 62.1908 345.481C65.0347 345.481 63.8648 348.126 66.8003 347.473C70.3499 346.684 70.154 348.554 72.9462 348.554C75.5665 348.554 76.8611 346.506 79.6044 346.506" stroke="#775833" stroke-linecap="round" stroke-linejoin="round"/>
<path d="M465.776 234.854C466.549 234.25 471.662 229.078 472.946 231.326C473.683 232.614 474.823 234.152 476.531 233.773C479.583 233.095 482.823 229.475 486.206 232.293C487.492 233.365 488.735 235.827 489.563 235.082C492.759 232.205 497.579 234.064 500.603 235.878" stroke="#775833" stroke-linecap="round" stroke-linejoin="round"/>
<path d="M558.99 128.324C562.485 128.798 567.511 130.26 571.054 129.121C574.408 128.043 576.884 126.597 580.728 126.332C583.203 126.162 585.242 127.3 587.671 127.3C589.418 127.3 591.585 125.857 593.248 126.332C594.801 126.776 593.032 130.776 595.524 131.852C599.245 133.459 602.412 135.494 606.564 135.494C608.652 135.494 609.182 135.464 609.182 137.543" stroke="#775833" stroke-linecap="round" stroke-linejoin="round"/>
<path d="M41.7042 48.4264C44.776 47.9445 56.1097 47.431 57.126 43.8738C57.3751 43.0023 63.9375 41.2801 64.4671 42.2804C66.7148 46.526 64.5716 46.2685 69.3611 43.8738C72.1835 42.4626 76.5393 43.3047 79.6044 43.3047" stroke="#775833" stroke-linecap="round" stroke-linejoin="round"/>
<path d="M171.794 145.738C177.086 144.981 179.737 148.577 184.143 147.843C187.188 147.336 189.447 148.811 192.28 148.811C196.233 148.811 209.694 141.607 209.694 150.859" stroke="#775833" stroke-linecap="round" stroke-linejoin="round"/>
<path d="M662.447 371.09C664.382 370.335 682.52 365.733 682.933 369.041C683.182 371.032 688.355 368.98 689.876 369.041C692.639 369.151 696.535 371.185 699.323 372.114" stroke="#775833" stroke-linecap="round" stroke-linejoin="round"/>
<path d="M708.542 40.2318C713.826 45.2049 721.371 44.3291 728.516 44.3291C729.346 44.3291 731.769 42.9115 732.044 43.8738C732.468 45.3555 731.629 46.3777 733.695 46.3777C737.788 46.3777 742.418 46.4512 745.417 49.4507" stroke="#775833" stroke-linecap="round" stroke-linejoin="round"/>
<path d="M279.5 106L288.5 93.5L294.25 90.5L297.125 89L300 87.5L312 99.5C312.11 100.929 309.421 103.301 300 104.75C298.308 105.011 296.399 105.241 294.25 105.431C290.225 105.787 285.358 106 279.5 106Z" fill="#947559"/>
<path d="M288.5 95.5L284 105.5H290.5L288.5 95.5Z" fill="#BA9778"/>
<path d="M297.5 94V90L301 87.5V90V96.5L297.5 94Z" fill="#BA9778"/>
<path d="M709 407.5L718 395L723.75 392L726.625 390.5L729.5 389L741.5 401C741.61 402.429 738.921 404.801 729.5 406.25C727.808 406.511 725.899 406.741 723.75 406.931C719.725 407.287 714.858 407.5 709 407.5Z" fill="#947559"/>
<path d="M718 397L713.5 407H720L718 397Z" fill="#BA9778"/>
<path d="M727 395.5V391.5L730.5 389V391.5V398L727 395.5Z" fill="#BA9778"/>
<path d="M139 312.5L132.078 300L127.655 297L125.444 295.5L123.232 294L114.002 306C113.918 307.429 115.986 309.801 123.232 311.25C124.534 311.511 126.002 311.741 127.655 311.931C130.751 312.287 134.494 312.5 139 312.5Z" fill="#947559"/>
<path d="M132.078 302L135.539 312H130.539L132.078 302Z" fill="#BA9778"/>
<path d="M125.155 300.5V296.5L122.463 294V296.5V303L125.155 300.5Z" fill="#BA9778"/>
<path d="M528 259.5L523.016 250.378L519.832 248.189L518.239 247.095L516.647 246L510.002 254.757C509.941 255.8 511.43 257.531 516.647 258.588C517.584 258.778 518.641 258.946 519.832 259.085C522.061 259.344 524.756 259.5 528 259.5Z" fill="#947559"/>
<path d="M523.016 251.838L525.508 259.135H521.908L523.016 251.838Z" fill="#BA9778"/>
<path d="M518.032 250.743V247.824L516.093 246V247.824V252.568L518.032 250.743Z" fill="#BA9778"/>
</svg>
