<svg width="68" height="66" viewBox="0 0 68 66" fill="none" xmlns="http://www.w3.org/2000/svg">
<rect y="17" width="68" height="7" fill="#5C5353"/>
<ellipse cx="8.5" cy="20.5" rx="3.4" ry="3.5" fill="#2E2A2A"/>
<ellipse cx="17" cy="20.5" rx="3.4" ry="3.5" fill="#2E2A2A"/>
<ellipse cx="25.5" cy="20.5" rx="3.4" ry="3.5" fill="#2E2A2A"/>
<ellipse cx="34" cy="20.5" rx="3.4" ry="3.5" fill="#2E2A2A"/>
<ellipse cx="42.5" cy="20.5" rx="3.4" ry="3.5" fill="#2E2A2A"/>
<ellipse cx="51" cy="20.5" rx="3.4" ry="3.5" fill="#2E2A2A"/>
<ellipse cx="59.5" cy="20.5" rx="3.4" ry="3.5" fill="#2E2A2A"/>
<rect y="59" width="68" height="7" fill="#5C5353"/>
<ellipse cx="8.5" cy="62.5" rx="3.4" ry="3.5" fill="#2E2A2A"/>
<ellipse cx="17" cy="62.5" rx="3.4" ry="3.5" fill="#2E2A2A"/>
<ellipse cx="25.5" cy="62.5" rx="3.4" ry="3.5" fill="#2E2A2A"/>
<ellipse cx="34" cy="62.5" rx="3.4" ry="3.5" fill="#2E2A2A"/>
<ellipse cx="42.5" cy="62.5" rx="3.4" ry="3.5" fill="#2E2A2A"/>
<ellipse cx="51" cy="62.5" rx="3.4" ry="3.5" fill="#2E2A2A"/>
<ellipse cx="59.5" cy="62.5" rx="3.4" ry="3.5" fill="#2E2A2A"/>
<rect y="22" width="68" height="39" fill="#536733"/>
<rect x="22" width="25" height="34" fill="#3D4E23"/>
<rect x="22" width="25" height="24" fill="#2E371E"/>
<rect x="22" width="25" height="6" fill="#1B2013"/>
<circle cx="34.5" cy="32.5" r="12.5" fill="#3D4E23"/>
<rect x="54" y="33" width="14" height="20" fill="#6A7D4B"/>
<rect x="1" y="33" width="14" height="20" fill="#6A7D4B"/>
</svg>
