<svg width="35" height="86" viewBox="0 0 35 86" fill="none" xmlns="http://www.w3.org/2000/svg">
<rect x="12" y="8" width="10" height="60" fill="#494646"/>
<ellipse cx="17" cy="8" rx="5" ry="8" fill="#920B0B"/>
<ellipse cx="17" cy="16.5" rx="5" ry="8.5" fill="#494646"/>
<path d="M25.8762 59.2216L22.0049 67.3629L28.2068 72.9618L19.6123 72.3946L15.7409 80.5359L14.3006 72.044L5.70608 71.4769L13.4104 66.7958L11.97 58.3039L18.1719 63.9027L25.8762 59.2216Z" fill="#FABB1B"/>
<path d="M25.8762 59.2216L22.0049 67.3629L28.2068 72.9618L19.6123 72.3946L15.7409 80.5359L14.3006 72.044L5.70608 71.4769L13.4104 66.7958L11.97 58.3039L18.1719 63.9027L25.8762 59.2216Z" fill="#FABB1B"/>
<path d="M29.6534 65.5769L21.8594 70.107L23.8133 78.2306L17.0424 72.9068L9.24841 77.437L12.8578 69.6165L6.08697 64.2928L15.0885 64.7832L18.698 56.9628L20.6518 65.0864L29.6534 65.5769Z" fill="#FABB1B"/>
<path d="M29.6534 65.5769L21.8594 70.107L23.8133 78.2306L17.0424 72.9068L9.24841 77.437L12.8578 69.6165L6.08697 64.2928L15.0885 64.7832L18.698 56.9628L20.6518 65.0864L29.6534 65.5769Z" fill="#F5CE68"/>
</svg>
